<svg width="955" height="746" viewBox="0 0 955 746" fill="none" xmlns="http://www.w3.org/2000/svg">
<path d="M511.727 680.258C511.727 680.258 505.734 777.322 602.221 726.388C640.574 748.561 684.904 735.386 697.502 719.206C719.064 732.381 758.012 740.581 779.591 710.717C821.527 722.194 846.417 710.819 846.111 693.433C845.551 662.669 805.958 673.671 805.958 673.671C805.958 673.671 791.578 627.524 743.631 659.885C728.657 632.923 688.504 635.317 668.13 660.479C660.948 636.505 610.014 628.729 590.234 657.49C566.855 632.312 515.31 648.492 511.727 680.258Z" fill="#E0C1FD"/>
<g style="mix-blend-mode:multiply">
<path d="M511.727 680.258C511.727 680.258 505.734 777.322 602.221 726.388C640.574 748.561 684.904 735.386 697.502 719.206C719.064 732.381 758.012 740.581 779.591 710.717C821.527 722.194 846.417 710.819 846.111 693.433C845.551 662.669 805.958 673.671 805.958 673.671C805.958 673.671 791.578 627.524 743.631 659.885C728.657 632.923 688.504 635.317 668.13 660.479C660.948 636.505 610.014 628.729 590.234 657.49C566.855 632.312 515.31 648.492 511.727 680.258Z" fill="#E0C1FD"/>
</g>
<g style="mix-blend-mode:multiply">
<path d="M511.727 680.258C511.727 680.258 505.734 777.322 602.221 726.388C640.574 748.561 684.904 735.386 697.502 719.206C719.064 732.381 758.012 740.581 779.591 710.717C821.527 722.194 846.417 710.819 846.111 693.433C845.551 662.669 805.958 673.671 805.958 673.671C805.958 673.671 791.578 627.524 743.631 659.885C728.657 632.923 688.504 635.317 668.13 660.479C660.948 636.505 610.014 628.729 590.234 657.49C566.855 632.312 515.31 648.492 511.727 680.258Z" fill="#E0C1FD"/>
</g>
<g style="mix-blend-mode:multiply">
<path d="M845.971 695.742C837.091 707.44 812.014 713.875 778.771 704.775C757.192 734.639 718.839 725.946 697.276 712.771C684.679 728.952 638.94 740.123 600.603 717.95C533.794 753.23 516.222 714.164 511.723 686.795C512.453 707.712 521.281 769.122 602.216 726.388C640.57 748.561 684.9 735.386 697.497 719.206C719.059 732.381 758.007 740.582 779.586 710.717C819.637 721.753 844.12 711.787 845.971 695.742Z" fill="#E0C1FD"/>
</g>
<path d="M844.684 684.871C837.468 664.972 806.025 673.682 806.025 673.682C806.025 673.682 791.645 627.536 743.698 659.896C728.724 632.935 688.571 635.328 668.197 660.49C665.684 652.12 657.84 645.736 647.823 642.171C646.578 645.413 646.164 648.915 646.618 652.358C648.316 668.64 662.237 670.524 671.847 669.828C656.312 673.02 627.33 682.12 637.415 704.684C649.3 731.289 695.345 702.29 703.732 687.91C720.523 707.078 747.688 688.3 753.664 677.926C763.665 695.889 783.631 690.151 783.631 690.151C783.631 690.151 787.23 702.29 813.988 699.896C833.309 698.114 841.39 691.322 844.684 684.871Z" fill="url(#paint0_linear_992_28)"/>
<path d="M836.583 325.553C836.799 304.04 831.702 282.807 821.745 263.736C831.172 245.055 835.987 224.388 835.786 203.464C835.786 153.65 810.318 112.121 776.566 102.699C773.323 53.462 731.93 14.4124 681.285 14.4124C665.185 14.3733 649.336 18.3986 635.206 26.1151C621.076 33.8316 609.122 44.9895 600.452 58.5554C592.683 56.584 584.698 55.5916 576.683 55.6013C561.052 55.567 545.652 59.3622 531.827 66.6549C518.003 73.9475 506.175 84.5158 497.378 97.4355C486.148 99.0847 475.829 104.553 468.159 112.919C461.288 94.7195 449.024 79.0516 433.007 68.0107C416.991 56.9698 397.985 51.0824 378.531 51.1362C373.287 51.1371 368.052 51.563 362.877 52.4096C356.314 45.8035 348.508 40.5627 339.909 36.99C331.309 33.4174 322.087 31.5837 312.775 31.5944C295.218 31.5985 278.291 38.1321 265.284 49.9246C252.277 61.7172 244.12 77.9258 242.401 95.3983C240.703 95.2285 239.005 95.1093 237.308 95.1093C198.258 95.1093 166.594 138.302 166.594 191.579C166.47 208.779 169.94 225.815 176.781 241.596C157.969 258.931 145.592 288.303 145.592 321.614C145.592 345.604 152.01 367.455 162.57 384.433C158.947 395.299 157.118 406.681 157.154 418.135C157.154 457.745 178.122 490.665 205.728 497.423C210.991 525.606 227.137 547.847 247.715 555.318C247.715 556.625 247.715 557.932 247.715 559.24C247.715 603.756 274.167 639.835 306.799 639.835C313.154 639.82 319.433 638.454 325.22 635.828C335.203 666.507 361.061 688.375 391.435 688.375H391.723C402.08 722.06 427.547 745.914 457.344 745.914C469.825 745.807 481.944 741.708 491.928 734.216C496.106 735.207 500.385 735.714 504.679 735.727C532.625 735.727 556.767 714.759 568.21 684.368C582.744 678.154 595.172 666.032 603.864 650.192C606.56 651.292 609.442 651.869 612.354 651.889C624.493 651.889 634.782 642.28 638.483 628.918C682.473 625.692 717.465 581.6 718.552 527.151C751.421 515.64 774.919 485.028 774.919 449.052C774.915 441.796 773.945 434.574 772.033 427.575C808.332 421.242 836.583 378.032 836.583 325.553ZM545.986 506.828C518.057 506.828 473.558 529.409 470.06 565.267C465.882 564.276 461.604 563.769 457.31 563.756C455.108 563.763 452.908 563.899 450.722 564.163C438.396 542.363 417.123 527.796 392.81 527.253C399.557 516.692 403.139 504.42 403.132 491.888C403.123 481.603 400.712 471.462 396.09 462.274C391.468 453.086 384.763 445.105 376.511 438.967C385.987 427.273 391.155 412.677 391.146 397.625C391.159 382.986 386.276 368.762 377.275 357.217C388.754 345.009 395.142 328.881 395.136 312.124C395.135 308.85 394.891 305.581 394.406 302.344C409.934 315.772 429.786 323.144 450.315 323.108C466.249 323.141 481.874 318.704 495.413 310.301C508.951 301.897 519.862 289.864 526.903 275.57C529.863 275.971 532.846 276.175 535.834 276.181C545.122 276.201 554.313 274.294 562.826 270.579C571.339 266.865 578.988 261.424 585.291 254.602C592.608 275.587 604.883 292.582 619.994 302.633C611.295 310.295 604.324 319.719 599.545 330.28C594.765 340.841 592.285 352.297 592.269 363.89C592.249 382.997 598.964 401.5 611.233 416.148C610.003 418.917 608.926 421.751 608.007 424.637C577.651 436.132 554.543 467.864 549.144 506.981C548.091 506.879 547.056 506.828 545.986 506.828Z" fill="url(#paint1_linear_992_28)"/>
<g style="mix-blend-mode:multiply">
<g style="mix-blend-mode:multiply">
<path d="M836.584 325.553C836.8 304.04 831.703 282.807 821.746 263.736C831.173 245.055 835.988 224.387 835.787 203.463C835.787 153.65 810.319 112.121 776.567 102.698C773.324 53.4618 731.932 14.4122 681.286 14.4122C670.258 14.4002 659.311 16.2899 648.926 19.998C721.439 8.28314 776.448 67.7237 778.961 105.958C812.73 115.398 849.081 247.98 757.025 263.753C766.992 282.82 772.09 304.056 771.864 325.57C771.864 378.049 743.629 421.309 707.16 427.54C709.087 434.537 710.063 441.761 710.064 449.018C710.064 484.995 686.549 515.606 653.679 527.117C652.593 581.566 617.601 625.59 573.611 628.884C569.927 642.246 559.638 651.855 547.498 651.855C544.587 651.834 541.705 651.257 539.009 650.157C530.384 665.998 517.956 678.12 503.355 684.334C491.912 714.725 467.701 735.693 439.823 735.693C435.535 735.681 431.262 735.174 427.09 734.182V737.153C436.124 742.803 446.554 745.824 457.209 745.88C469.69 745.773 481.81 741.674 491.793 734.182C495.971 735.173 500.25 735.679 504.544 735.693C532.49 735.693 556.633 714.725 568.076 684.334C582.609 678.12 595.037 665.998 603.73 650.157C606.426 651.258 609.307 651.835 612.219 651.855C624.358 651.855 634.647 642.246 638.348 628.884C682.338 625.658 717.33 581.566 718.417 527.117C751.286 515.606 774.784 484.995 774.784 449.018C774.781 441.762 773.81 434.539 771.898 427.54C808.333 421.242 836.584 378.032 836.584 325.553Z" fill="#E0C1FD"/>
</g>
</g>
<g style="mix-blend-mode:multiply">
<path d="M457.311 563.757C455.109 563.764 452.91 563.9 450.724 564.164C438.397 542.364 417.124 527.797 392.812 527.254C399.559 516.693 403.141 504.421 403.134 491.889C403.125 481.604 400.713 471.463 396.091 462.275C391.469 453.087 384.765 445.106 376.512 438.968C385.989 427.274 391.156 412.678 391.148 397.626C391.161 382.987 386.278 368.763 377.276 357.218C388.756 345.01 395.144 328.882 395.137 312.124C395.136 308.851 394.892 305.582 394.407 302.345L394.883 302.735C353.32 271.343 331.945 206.826 331.945 206.826C340.536 254.636 349.721 302.294 317.564 319.866C366.699 369.018 345.324 419.545 335.34 443.518C381.283 476.676 346.529 526.201 327.751 566.949C372.896 536.201 421.233 564.164 441.199 589.733C445.206 565.76 470.062 565.268 470.062 565.268C465.884 564.277 461.605 563.77 457.311 563.757V563.757Z" fill="#E0C1FD"/>
</g>
<path opacity="0.5" d="M208.445 174.286C212.18 148.649 227.223 123.929 272.419 127.528C270.823 79.5821 296.986 58.0198 329.754 75.5921" stroke="#F1E4FD" stroke-width="17.399" stroke-linecap="round" stroke-linejoin="round"/>
<path d="M630.252 390.081C630.252 390.081 613.376 363.935 626.398 337.771" stroke="#F1E4FD" stroke-width="17.399" stroke-linecap="round" stroke-linejoin="round"/>
<path d="M212.858 228.039C219.985 228.039 225.762 222.262 225.762 215.136C225.762 208.009 219.985 202.232 212.858 202.232C205.732 202.232 199.955 208.009 199.955 215.136C199.955 222.262 205.732 228.039 212.858 228.039Z" fill="#F1E4FD"/>
<g style="mix-blend-mode:multiply">
<path d="M423.912 318.95C432.439 321.714 441.349 323.118 450.313 323.109C466.248 323.142 481.872 318.705 495.411 310.301C508.95 301.898 519.86 289.865 526.902 275.571C529.862 275.972 532.845 276.176 535.832 276.182C545.12 276.202 554.311 274.295 562.824 270.58C571.337 266.866 578.987 261.425 585.289 254.603C585.289 254.603 596.206 227.76 599.398 214.568C584.61 248.525 549.856 270.511 518.701 258.915C511.91 292.633 466.544 320.07 423.912 318.95Z" fill="#E0C1FD"/>
</g>
<path d="M759.199 150.287V179.948" stroke="#F1E4FD" stroke-width="4.34974" stroke-linecap="round" stroke-linejoin="round"/>
<path d="M771.117 167.373H747.297" stroke="#F1E4FD" stroke-width="4.34974" stroke-linecap="round" stroke-linejoin="round"/>
<g style="mix-blend-mode:multiply">
<g style="mix-blend-mode:multiply">
<path d="M788.365 141.092V159.564" stroke="#E0C1FD" stroke-width="4.34974" stroke-linecap="round" stroke-linejoin="round"/>
</g>
<g style="mix-blend-mode:multiply">
<path d="M795.784 151.732H780.945" stroke="#E0C1FD" stroke-width="4.34974" stroke-linecap="round" stroke-linejoin="round"/>
</g>
</g>
<path d="M511.727 611.99V641.651" stroke="#F1E4FD" stroke-width="4.34974" stroke-linecap="round" stroke-linejoin="round"/>
<path d="M523.641 629.076H499.82" stroke="#F1E4FD" stroke-width="4.34974" stroke-linecap="round" stroke-linejoin="round"/>
<g style="mix-blend-mode:multiply">
<g style="mix-blend-mode:multiply">
<path d="M493.73 647.803V666.275" stroke="#E0C1FD" stroke-width="4.34974" stroke-linecap="round" stroke-linejoin="round"/>
</g>
<g style="mix-blend-mode:multiply">
<path d="M501.149 658.443H486.311" stroke="#E0C1FD" stroke-width="4.34974" stroke-linecap="round" stroke-linejoin="round"/>
</g>
</g>
<g style="mix-blend-mode:multiply">
<g style="mix-blend-mode:multiply">
<path d="M836.584 325.552C836.8 304.039 831.703 282.806 821.745 263.735C823.324 260.713 824.784 257.555 826.109 254.295C817.987 259.075 809.035 262.278 799.725 263.735C809.682 282.806 814.779 304.039 814.563 325.552C814.563 378.031 786.312 421.292 749.86 427.523C751.772 434.522 752.743 441.745 752.746 449C752.746 484.977 729.248 515.588 696.362 527.099C695.292 581.548 660.3 625.572 616.31 628.866C612.609 642.228 602.32 651.837 590.181 651.837C587.269 651.817 584.388 651.24 581.692 650.14C573.067 665.98 560.639 678.102 546.038 684.316C536.14 710.598 516.751 729.818 493.609 734.538C497.202 735.276 500.859 735.657 504.526 735.675C532.472 735.675 556.615 714.707 568.059 684.316C582.592 678.102 595.02 665.98 603.713 650.14C606.408 651.24 609.29 651.817 612.202 651.837C624.341 651.837 634.629 642.228 638.331 628.866C682.321 625.64 717.313 581.548 718.4 527.099C751.269 515.588 774.767 484.977 774.767 449C774.763 441.745 773.793 434.522 771.881 427.523C808.333 421.241 836.584 378.031 836.584 325.552Z" fill="#E0C1FD"/>
</g>
<g style="mix-blend-mode:multiply">
<path d="M482.624 735.743C478.33 735.73 474.051 735.223 469.873 734.232V737.204C472.688 738.912 475.634 740.394 478.685 741.635C482.866 739.91 486.851 737.741 490.569 735.166C487.938 735.546 485.283 735.739 482.624 735.743V735.743Z" fill="#E0C1FD"/>
</g>
<g style="mix-blend-mode:multiply">
<path d="M702.627 16.7871C698.899 17.6317 695.226 18.6973 691.625 19.9788C697.419 19.0371 703.276 18.5378 709.146 18.4849C707.007 17.8398 704.834 17.2795 702.627 16.7871Z" fill="#E0C1FD"/>
</g>
</g>
<path d="M885.022 693.565C885.022 693.565 877.042 709.151 893.816 712.343C905.395 723.124 931.372 717.929 936.16 710.34C948.554 715.943 960.931 711.545 958.537 700.764C956.143 689.983 946.958 686.774 939.352 691.562C934.564 684.771 921.389 671.986 901.813 673.99C882.237 675.993 885.022 693.565 885.022 693.565Z" fill="#E0C1FD"/>
<g style="mix-blend-mode:multiply">
<g style="mix-blend-mode:multiply">
<path d="M958.537 700.777C958.2 699.218 957.658 697.711 956.924 696.295C952.969 700.726 943.495 709.283 934.768 701.473C929.182 707.653 920.371 721.592 894.105 712.594C905.82 723.053 931.457 717.891 936.16 710.353C948.554 715.956 960.931 711.575 958.537 700.777Z" fill="#E0C1FD"/>
</g>
</g>
<path d="M143.426 444.064C117.327 449.218 115.355 463.246 102.18 460.348C94.9376 458.752 88.3762 446.172 88.3317 440.144C88.2503 423.135 122.272 406.509 146.705 409.954C171.137 413.4 167.749 439.246 143.426 444.064Z" fill="#9556E1"/>
<path d="M305.967 472.096C309.368 498.483 323.214 501.383 319.44 514.355C317.367 521.452 304.464 527.185 298.369 526.734C281.401 525.681 267.069 490.587 272.164 466.437C277.258 442.287 302.799 447.458 305.967 472.096Z" fill="#9556E1"/>
<path d="M362.1 386.044C372.481 386.207 386.241 386.934 395.088 357.303C402.376 332.876 397.93 289.175 377.582 294.817C361.281 299.329 368.13 314.575 367.879 338.359C367.628 362.143 347.365 365.14 347.365 365.14L362.1 386.044Z" fill="#F088FE"/>
<path fill-rule="evenodd" clip-rule="evenodd" d="M366.356 396.477C368.793 396.177 370.72 395.262 371.938 393.681C376.743 387.443 368.71 373.198 353.996 361.864C339.941 351.037 324.874 346.783 319.365 351.859C302.754 349.922 281.197 354.115 251.078 360.963C223.926 367.136 207.393 362.224 194.135 358.284C176.051 352.911 164.059 349.348 139.521 378.192C139.521 378.192 126.758 424.949 151.303 458.902C150.223 466.019 157.926 477.871 170.537 487.585C185.251 498.92 201.075 503.051 205.88 496.814C207.085 495.248 207.483 493.178 207.169 490.777L207.368 490.814C220.922 500.04 234.54 503.013 238.936 497.306C239.76 496.237 240.206 494.932 240.307 493.447C241.04 493.442 241.779 493.434 242.523 493.423C252.666 498.277 261.589 499.058 264.991 494.642C265.49 493.993 265.851 493.258 266.08 492.449C275.686 496.764 284.005 497.3 287.262 493.072C288.042 492.06 288.483 490.838 288.613 489.452C295.304 491.327 300.726 490.872 303.208 487.65C303.555 487.199 303.834 486.708 304.05 486.178C310.571 487.934 315.84 487.437 318.276 484.275C318.817 483.573 319.195 482.77 319.419 481.881C325.791 483.534 330.927 483.002 333.323 479.892C334.706 478.096 335.026 475.636 334.428 472.773C344.968 466.359 352.554 458.883 357.843 450.981C360.978 450.904 363.44 449.966 364.893 448.079C366.783 445.626 366.687 441.933 364.979 437.666C368.07 437.574 370.499 436.636 371.938 434.767C374.657 431.237 373.265 425.142 368.877 418.462C370.141 417.982 371.178 417.254 371.938 416.267C375.125 412.13 372.665 404.473 366.356 396.477Z" fill="url(#paint2_radial_992_28)"/>
<path d="M355.912 446.928C372.217 467.958 385.615 463.437 388.933 476.538C390.754 483.727 382.519 495.201 377.096 497.96C361.949 505.669 331.828 482.695 323.97 459.268C316.112 435.841 340.693 427.314 355.912 446.928Z" fill="#AD6EF9"/>
<path d="M83.7821 230.682C83.7821 230.682 81.1812 226.351 63.8355 195.373C31.1926 137.593 66.5459 106.181 75.5843 43.274C78.8976 20.1618 84.759 -4.18339 98.8685 12.7173C122.283 40.7273 110.682 66.0125 103.006 89.2759C111.635 69.9176 119.642 63.596 124.7 68.0754C134.213 76.6737 135.875 105.24 124.33 136.97C124.33 136.97 134.83 117.761 142.858 123.25C157.947 133.884 150.879 166.497 135.096 183.522C117.817 202.173 112.993 217.008 113.468 224.96C113.816 236.614 86.0665 233.186 83.7821 230.682Z" fill="url(#paint3_linear_992_28)"/>
<path d="M27.7141 275.374C25.5645 356.644 98.1481 404.306 187.984 406.574C277.819 408.841 350.985 365.282 353.135 284.012C355.284 202.742 280.621 141.223 190.715 141.138C128.66 141.117 29.8463 194.035 27.7141 275.374Z" fill="white"/>
<path d="M154.929 302.007C154.929 302.007 141.55 334.751 135.245 321.157C132.163 313.887 129.385 304.765 127.628 298.759C127.628 298.759 115.105 326.919 107.449 316.53C99.7929 306.14 104.003 288.452 104.003 288.452" stroke="#F088FE" stroke-width="6.16029" stroke-linecap="round" stroke-linejoin="round"/>
<path d="M212.065 303.319C201.826 305.913 191.421 299.711 188.826 289.465C186.231 279.22 192.427 268.812 202.667 266.218C212.906 263.624 223.311 269.827 225.906 280.072C228.502 290.317 222.305 300.726 212.065 303.319Z" fill="#003451"/>
<path d="M265.334 279.691C265.334 279.691 266.871 274.899 278.384 241.16C299.83 178.302 346.788 183.872 399.728 148.776C419.173 135.924 441.156 124.118 438.045 145.858C432.541 182.037 406.131 190.122 383.693 199.989C403.857 193.597 413.917 195.378 413.939 202.124C413.955 215.073 393.628 235.156 362.284 247.647C362.284 247.647 383.591 242.726 384.691 252.281C386.846 270.632 357.782 287.058 334.689 286.523C309.174 285.978 295.002 292.284 289.338 298.012C280.983 305.999 265.052 283.065 265.334 279.691Z" fill="url(#paint4_linear_992_28)"/>
<path d="M70.3897 282.288C60.1502 284.882 49.7456 278.679 47.1503 268.434C44.5549 258.189 50.7517 247.781 60.9911 245.187C71.2306 242.593 81.6352 248.796 84.2305 259.041C86.8259 269.286 80.6291 279.694 70.3897 282.288Z" fill="#003451"/>
<ellipse cx="137.956" cy="161.16" rx="40.7724" ry="17.2846" transform="rotate(-23.3902 137.956 161.16)" fill="white"/>
<ellipse cx="202.924" cy="145.811" rx="40.7724" ry="17.2846" transform="rotate(-11.5158 202.924 145.811)" fill="white"/>
<ellipse cx="268.006" cy="147.248" rx="40.7724" ry="17.2846" transform="rotate(-11.5158 268.006 147.248)" fill="white"/>
<ellipse cx="281.898" cy="174.896" rx="40.7724" ry="17.2846" transform="rotate(-11.5158 281.898 174.896)" fill="white"/>
<path d="M176.368 476.584C155.819 493.549 160.755 506.772 147.734 510.547C140.617 512.586 128.894 504.682 125.989 499.343C117.837 484.402 139.928 453.606 163.077 445.071C186.226 436.537 195.513 460.813 176.368 476.584Z" fill="#AD6EF9"/>
<defs>
<linearGradient id="paint0_linear_992_28" x1="740.008" y1="640.631" x2="740.008" y2="715.515" gradientUnits="userSpaceOnUse">
<stop stop-color="#FDC1F0"/>
<stop offset="0.755208" stop-color="#E0C1FD"/>
</linearGradient>
<linearGradient id="paint1_linear_992_28" x1="491.091" y1="14.4121" x2="491.091" y2="745.914" gradientUnits="userSpaceOnUse">
<stop stop-color="#E0C1FD"/>
<stop offset="1" stop-color="#F57AFF"/>
</linearGradient>
<radialGradient id="paint2_radial_992_28" cx="0" cy="0" r="1" gradientUnits="userSpaceOnUse" gradientTransform="translate(236.869 385.431) rotate(81.1372) scale(116.169 457.837)">
<stop stop-color="#C8EBFF"/>
<stop offset="0.322917" stop-color="white"/>
<stop offset="1" stop-color="white"/>
</radialGradient>
<linearGradient id="paint3_linear_992_28" x1="66.3738" y1="12.9753" x2="120.971" y2="228.5" gradientUnits="userSpaceOnUse">
<stop stop-color="#E0C1FD"/>
<stop offset="1" stop-color="#AD6EF9"/>
</linearGradient>
<linearGradient id="paint4_linear_992_28" x1="338.359" y1="156.886" x2="369.481" y2="279.741" gradientUnits="userSpaceOnUse">
<stop stop-color="#E0C1FD"/>
<stop offset="1" stop-color="#AD6EF9"/>
</linearGradient>
</defs>
</svg>
